<?xml version="1.0" encoding="UTF-8" standalone="no"?>
<svg
   width="48"
   height="48"
   viewBox="0 0 48 48"
   fill="none"
   version="1.1"
   id="svg196"
   sodipodi:docname="favicon.svg"
   inkscape:version="1.2.1 (9c6d41e410, 2022-07-14)"
   xmlns:inkscape="http://www.inkscape.org/namespaces/inkscape"
   xmlns:sodipodi="http://sodipodi.sourceforge.net/DTD/sodipodi-0.dtd"
   xmlns="http://www.w3.org/2000/svg"
   xmlns:svg="http://www.w3.org/2000/svg">
  <defs
     id="defs200" />
  <sodipodi:namedview
     id="namedview198"
     pagecolor="#ffffff"
     bordercolor="#666666"
     borderopacity="1.0"
     inkscape:showpageshadow="2"
     inkscape:pageopacity="0.0"
     inkscape:pagecheckerboard="0"
     inkscape:deskcolor="#d1d1d1"
     showgrid="false"
     inkscape:zoom="23.467531"
     inkscape:cx="21.945214"
     inkscape:cy="25.183731"
     inkscape:window-width="2880"
     inkscape:window-height="1526"
     inkscape:window-x="2869"
     inkscape:window-y="-11"
     inkscape:window-maximized="1"
     inkscape:current-layer="svg196" />
  <rect
     width="48"
     height="48"
     rx="100"
     fill="#14181F"
     id="rect192"
     style="fill:#509eed;fill-opacity:1" />
  <g
     aria-label="V"
     id="text2370"
     style="font-size:64px;line-height:1.25;font-family:'Rage Italic';-inkscape-font-specification:'Rage Italic, Normal';fill:#ffffff">
    <path
       d="m 6.2255997,18.193004 0.7406,-0.65311 q 0.8260538,-0.681506 1.0539308,-0.681506 0.1139384,-0.312357 0.9969615,-1.050654 0.3418154,-0.05679 0.6836308,-0.539526 0.3703002,-0.511129 0.7690842,-0.596317 0.398785,-0.08519 0.883023,-0.624714 0.484239,-0.539525 1.338778,-0.851882 l 0.284846,-0.255565 q 0.655146,-0.511129 0.939992,-0.511129 l 6.23813,-2.6692309 q 0.256362,-0.113585 1.167869,0.4259409 0.939994,0.511129 0.939994,1.646972 0,1.760557 -0.769085,2.044518 0.05697,0.113584 0.05697,0.28396 0,0.340753 -0.854538,1.732161 -0.854539,1.363011 -1.082416,1.646972 -0.227876,0.283961 -0.341815,0.766694 l -0.284846,0.511129 q 0,0.283961 -0.341816,0.79509 l -0.598177,1.022259 q -0.797569,1.079051 -0.911507,1.902537 0,0.05679 -0.3703,0.482733 l -0.455754,0.738298 q -0.227877,1.221031 -0.655146,1.4482 -0.398785,0.198773 -0.398785,0.369149 0,0.65311 -0.341815,1.221031 L 13.6316,30.261335 q -0.170908,0.425941 -0.655146,1.419804 l -0.170908,0.738298 -0.569692,1.050655 v 0.823486 l -0.199392,0.340753 q -0.113939,0.170376 -0.227877,0.851882 -0.113938,0.65311 -0.313331,1.079051 -0.199392,0.397545 -0.199392,0.624713 v 0.369149 l 0.05697,0.454337 q 0,0.113585 -0.113938,0.397545 0.05697,0.312357 0.05697,0.709902 0,0.170377 0.113938,0.340753 l 0.113939,-0.170376 q 0.284846,-0.05679 0.569692,-0.397545 0.313331,-0.369149 0.569692,-0.51113 0.256362,-0.14198 0.427269,-0.653109 0.170908,-0.539526 0.541208,-0.65311 1.053931,-1.050655 1.167869,-1.391408 l 1.623623,-2.669231 0.996962,-1.334615 q 0,-0.624714 0.996961,-1.391408 0.455754,-0.709902 0.626662,-1.079051 0.170908,-0.397545 0.341815,-0.397545 0.313331,0 0.42727,0.198773 0.113938,0.170376 0.170907,0.170376 0.227877,0 0.227877,-0.312356 0,-0.397545 -0.341815,-0.624714 -0.05697,0 -0.05697,-0.113584 0,-0.709902 0.598177,-1.504992 0.626661,-0.823486 0.854538,-1.363012 0.227877,-0.567921 1.1109,-1.646972 0.883023,-1.079051 1.082415,-1.561784 Q 23.658184,21.54374 24,21.54374 h 0.113938 q 0.541207,-0.511129 0.939992,-0.511129 0.113938,0 0.170908,0.340753 0.3703,-0.227169 0.3703,-0.340753 0,-0.283961 -0.398785,-0.369149 -0.3703,-0.08519 -0.3703,-0.340753 0,-0.170376 1.110901,-1.476596 1.1109,-1.306219 1.224838,-1.306219 0.113939,0 0.284846,0.170377 l 0.170908,-0.113585 v -0.454337 q 0,-0.113584 0.427269,-0.539525 0,-0.454338 0.3703,-0.624714 0.3703,-0.170376 0.3703,-0.227169 L 28.671477,15.325 h 0.05697 q 0.3703,-0.227168 0.484239,-0.340753 l 0.68363,0.05679 q 0.227877,0 0.341816,-0.397545 -0.455754,-0.141981 -0.455754,-0.369149 0,-0.227169 0.427269,-0.567922 0.455754,-0.340753 0.455754,-0.681506 0,-0.312357 1.338777,-1.419803 0.398784,-0.454338 0.769085,-0.937071 0.398784,-0.511129 1.566653,-1.1642389 0.08545,-0.709902 0.341816,-0.79509 l 0.712115,0.05679 0.341815,-0.227168 -0.05697,-0.596318 q 1.22484,-0.795085 1.59514,-0.9654615 0.3703,-0.1987725 0.62666,-0.4827332 1.310294,-0.8802783 1.794532,-0.8802783 L 40.2932,5.7271274 q 0.484239,-0.1703765 0.826054,-0.1703765 0.284846,0 0.455754,0.085188 0.170907,0.085188 0.598178,0.1987726 0.427268,0.085188 0.7406,0.8234861 0.341815,0.7099018 0.341815,1.164239 l 0.05697,0.9370705 q 0,0.79509 -0.7406,1.7037649 -0.712115,0.908674 -1.167869,0.908674 l -0.3703,-0.05679 q -0.512723,0.227168 -1.139385,0.340753 -0.598177,0.113584 -1.196354,0.596317 l -0.170907,0.113585 H 38.18534 l -0.05697,0.113584 v 0.170376 q -0.142423,0.113585 -0.398783,0.425941 -0.256363,0.312357 -0.826054,0.766694 -0.541208,0.425942 -1.053932,1.022259 -0.512722,0.567922 -1.224837,0.965467 -0.712117,0.369149 -0.939993,1.022258 l -0.113939,0.113583 h -0.284846 q -0.541208,0.624713 -0.968476,1.192635 -0.42727,0.539525 -0.769086,0.766694 -0.313331,0.227168 -0.341815,0.369149 -0.02848,0.113584 -0.42727,0.511129 l -0.284846,0.567921 q -0.427269,0.198773 -0.996961,0.965467 -0.541208,0.738298 -0.655145,0.851882 l -0.227877,0.283961 -0.455754,0.283961 q -0.484239,0.482733 -0.655146,0.709902 0,0.539525 -0.569693,0.709901 -0.284846,0.255565 -0.455753,0.993863 -0.170908,0.738298 -0.3703,0.738298 l -0.512724,-0.05679 q -0.08545,0.05679 -0.313331,0.454337 l -0.170908,0.255565 q -0.170908,0.170376 -0.341815,0.596317 -0.142423,0.425941 -0.655146,0.624714 -0.341816,0.851882 -0.398785,0.851882 l -0.284846,0.227169 q -0.113939,0.369149 -0.113939,0.425941 -0.512723,0.596317 -0.854538,0.908674 -0.313331,0.283961 -0.256362,0.369149 -0.113938,0.170376 -0.31333,0.312357 -0.170908,0.14198 -0.284847,0.539525 -0.113938,0.369149 -0.455753,0.425941 l -0.170908,0.397543 v 0.369149 q -0.113938,0.08519 -1.1109,1.391408 l -0.996962,1.675368 -2.2218,2.981588 q -0.683629,0 -0.683629,0.908675 l -0.655147,0.823486 q -0.284846,0.28396 -0.341815,0.624713 -0.05697,0.312357 -0.598177,0.312357 -0.883023,1.050655 -2.079377,1.050655 -0.313331,0 -0.484239,0.05679 L 10.925561,41.846933 Q 10.526777,41.591369 10.384354,41.449388 10.241931,41.279012 10.184961,41.279012 9.6152689,41.023447 8.9886074,39.319683 8.3619459,37.587522 8.3619459,36.451679 q 0,-0.170376 0.3133307,-1.533388 v -0.05679 q 0,-0.05679 -0.1424231,-0.255564 -0.1139384,-0.198773 -0.1139384,-0.369149 0,-0.227169 0.1993923,-0.369149 0.2278769,-0.170377 0.2278769,-0.340753 0,-0.79509 0.2848462,-1.107447 0.1709077,-0.511129 0.1709077,-0.79509 L 9.1879997,31.198406 q 0,-0.227169 0.2278769,-0.681506 0.4272692,-0.198773 0.4272692,-0.425941 l -0.056969,-0.79509 q 0,-0.51113 0.6266612,-0.596318 -0.05697,-0.283961 -0.05697,-0.454337 0,-0.283961 0.142423,-0.539525 0.142424,-0.283961 0.170908,-0.681506 0.02848,-0.397545 0.227877,-0.567922 0.227877,-0.198772 0.341815,-0.738298 0.113939,-0.539525 0.683631,-1.363011 0.569693,-0.823486 0.683631,-1.221031 0.113938,-0.425941 0.199392,-0.425941 0.655146,0 0.655146,-0.227169 0,-0.227169 -0.3703,-0.454337 l -0.05697,-0.170377 q 0,-0.596317 0.883023,-1.334615 0,-0.823486 0.512723,-0.823486 L 14.25826,19.243659 q 0,-0.369149 0.512723,-1.277824 0.541207,-0.93707 0.826054,-2.101309 l 0.31333,-0.425941 q 0.227876,-0.283961 0.227876,-0.397545 l -0.05697,-0.340753 q 0.284846,-0.709902 0.284846,-0.766694 0,-0.312357 -0.227876,-0.454338 -0.883023,0.113585 -1.338777,0.795091 l -0.113936,0.14198 h -0.541208 q -0.455754,0 -1.167869,0.965466 l -0.826054,0.65311 q -1.310293,0.965467 -2.107862,1.618576 -0.7690845,0.624714 -1.0539306,1.079051 l -0.4272692,0.65311 q -0.1424231,0.255565 -0.4272693,1.476596 -0.2848461,1.221031 -1.5666538,1.221031 -1.8799846,0 -1.8799846,-1.930933 0,-0.681506 1.5381702,-1.959329 z"
       id="path2434"
       style="stroke-width:0.91009;fill:#ffffff" />
  </g>
</svg>
